<?xml version="1.0" standalone="no"?>
<!DOCTYPE svg PUBLIC "-//W3C//DTD SVG 20010904//EN"
 "http://www.w3.org/TR/2001/REC-SVG-20010904/DTD/svg10.dtd">
<svg version="1.0" xmlns="http://www.w3.org/2000/svg"
 width="310.000000pt" height="310.000000pt" viewBox="0 0 310.000000 310.000000"
 preserveAspectRatio="xMidYMid meet">
<metadata>
Created by potrace 1.14, written by Peter Selinger 2001-2017
</metadata>
<g transform="translate(0.000000,310.000000) scale(0.100000,-0.100000)"
fill="#000000" stroke="none">
<path d="M1100 3028 c-19 -4 -45 -11 -58 -13 -115 -26 -244 -116 -329 -230
-31 -42 -97 -170 -118 -230 -9 -27 -20 -57 -23 -65 -19 -54 -72 -265 -77 -311
-3 -25 -8 -56 -11 -70 -22 -104 -29 -282 -29 -779 0 -521 3 -593 34 -722 55
-234 172 -396 339 -470 85 -38 218 -67 336 -73 50 -2 101 -7 114 -9 12 -3 22
-3 22 -2 0 4 -129 86 -135 86 -16 0 -225 201 -225 217 0 6 -4 13 -8 15 -29 11
-109 165 -138 263 -34 117 -38 191 -38 745 0 456 4 592 18 685 3 17 8 53 12
80 9 62 7 52 39 165 24 82 99 265 115 280 9 8 60 89 60 95 0 3 8 13 18 23 9
10 26 30 37 44 49 64 132 144 195 188 41 30 126 70 146 70 17 0 19 16 2 18
-54 7 -270 7 -298 0z"/>
<path d="M1562 2954 c-152 -31 -321 -153 -444 -319 -21 -27 -41 -54 -46 -60
-20 -24 -82 -145 -75 -145 4 0 3 -4 -3 -8 -9 -6 -41 -88 -48 -125 -2 -7 -8
-30 -14 -52 -6 -22 -14 -56 -17 -75 -3 -19 -8 -42 -10 -50 -22 -79 -28 -254
-29 -755 0 -434 4 -568 18 -635 32 -161 150 -340 294 -447 20 -15 39 -31 42
-34 3 -3 45 -30 94 -59 101 -61 240 -116 318 -126 62 -9 327 -10 378 -2 19 3
38 6 43 7 18 3 5 19 -20 26 -16 3 -44 13 -63 22 -112 48 -159 70 -192 90 -21
13 -42 23 -48 23 -5 0 -10 5 -10 10 0 6 -6 10 -13 10 -7 0 -22 8 -33 18 -11
11 -25 21 -31 23 -50 19 -276 244 -335 334 -49 77 -101 182 -114 230 -22 87
-25 159 -25 535 0 324 6 554 16 569 2 4 6 27 10 51 3 25 13 70 22 100 9 30 17
60 18 65 1 6 3 13 5 18 1 4 4 12 5 17 1 6 4 12 5 15 1 3 3 8 4 13 1 4 8 18 16
32 7 14 13 27 13 30 -2 13 61 127 104 187 47 66 197 223 214 223 4 0 14 6 21
13 20 20 152 96 227 130 l66 30 -60 28 c-106 48 -208 63 -303 43z"/>
<path d="M2256 2871 c-17 -7 -17 -8 5 -23 39 -26 132 -121 164 -169 17 -24 37
-52 45 -61 38 -42 151 -292 155 -343 0 -5 4 -16 8 -22 5 -7 6 -13 3 -13 -3 0
-1 -11 4 -25 5 -14 12 -46 16 -72 3 -27 8 -51 10 -55 17 -28 26 -1145 10
-1281 -19 -174 -64 -312 -144 -447 -39 -66 -127 -179 -157 -203 -16 -13 36 3
85 27 25 11 47 24 48 29 2 4 8 7 13 7 19 0 177 120 225 172 76 82 97 113 162
236 43 84 89 209 98 272 3 19 9 51 14 70 5 19 12 62 17 95 9 70 9 742 -1 800
-3 22 -9 56 -11 75 -3 19 -8 43 -11 53 -3 11 -7 29 -9 40 -21 134 -103 343
-171 434 -13 17 -24 36 -24 42 0 6 -4 11 -8 11 -4 0 -15 12 -24 28 -32 53
-184 197 -241 227 -12 7 -38 21 -58 33 -44 24 -123 53 -162 58 -16 2 -32 6
-35 8 -4 2 -15 0 -26 -3z"/>
<path d="M2005 2789 c-96 -35 -251 -112 -288 -142 -14 -12 -40 -33 -58 -47
-96 -74 -197 -207 -243 -320 -15 -36 -31 -74 -36 -85 -12 -27 -40 -118 -45
-147 -3 -12 -7 -34 -10 -48 -3 -14 -9 -52 -13 -85 -10 -83 -9 -940 1 -995 10
-57 88 -218 124 -257 15 -17 38 -42 50 -57 12 -14 28 -23 36 -20 29 11 100
150 114 224 3 14 7 279 8 590 3 609 4 663 17 698 4 12 10 34 12 49 9 46 58
136 100 182 47 51 105 80 158 81 41 0 118 -27 118 -41 0 -5 5 -9 12 -9 45 0
161 -206 174 -309 3 -19 7 -37 9 -42 7 -11 9 -1284 2 -1295 -3 -5 -8 -28 -12
-51 -16 -111 -96 -278 -188 -395 -16 -20 -26 -41 -23 -46 3 -5 34 -19 68 -32
35 -12 71 -26 80 -31 33 -17 53 -8 95 44 23 29 54 66 69 84 14 17 25 35 24 39
-1 4 2 10 7 13 15 10 93 131 93 145 0 6 4 16 9 22 8 8 50 114 55 139 5 23 26
123 32 155 8 42 15 1161 7 1174 -3 4 -7 27 -8 50 -10 155 -115 472 -169 508
-7 5 -7 8 -1 8 7 0 7 3 0 8 -6 4 -23 25 -40 47 -38 51 -162 176 -199 201 -41
26 -52 26 -141 -7z"/>
<path d="M498 2697 c-30 -34 -78 -94 -107 -132 -28 -39 -55 -76 -61 -82 -26
-31 -130 -247 -158 -328 -26 -75 -60 -203 -78 -290 -25 -130 -37 -525 -21
-720 7 -90 22 -193 36 -245 5 -19 13 -46 16 -60 4 -14 10 -34 15 -45 4 -11 18
-45 30 -75 37 -92 134 -244 195 -305 11 -11 46 -48 78 -82 31 -34 57 -59 57
-56 0 2 -17 35 -37 71 -40 71 -61 121 -70 162 -2 14 -8 34 -13 45 -9 22 -25
94 -36 165 -10 63 -9 1115 0 1225 12 134 13 137 19 175 4 19 9 51 11 70 11 76
17 116 22 133 3 10 8 34 10 53 2 20 11 49 19 65 9 16 13 29 11 29 -7 0 70 183
110 263 8 15 13 27 11 27 -2 0 -28 -28 -59 -63z"/>
<path d="M1880 2274 c-35 -23 -66 -73 -91 -152 -21 -65 -22 -81 -24 -647 -2
-319 -5 -608 -9 -643 -11 -107 -63 -226 -135 -305 -18 -21 -32 -39 -30 -40 38
-29 105 -84 107 -89 2 -5 7 -8 12 -8 4 0 49 -25 99 -56 107 -66 99 -68 176 51
70 110 104 184 131 288 22 86 22 96 22 686 0 329 -4 619 -9 643 -5 23 -12 54
-14 68 -6 28 -59 137 -78 160 -44 55 -110 73 -157 44z"/>
</g>
</svg>
